<svg width="25" height="24" viewBox="0 0 25 24" fill="none" xmlns="http://www.w3.org/2000/svg">
<g clip-path="url(#clip0_110_3204)">
<path d="M16.5 16L12.5 12L8.5 16" stroke="#303132" stroke-width="2" stroke-linecap="round" stroke-linejoin="round"/>
<path d="M12.5 12V21" stroke="#303132" stroke-width="2" stroke-linecap="round" stroke-linejoin="round"/>
<path d="M20.8895 18.39C21.8648 17.8583 22.6353 17.0169 23.0793 15.9986C23.5234 14.9804 23.6157 13.8432 23.3417 12.7667C23.0677 11.6901 22.443 10.7355 21.5661 10.0534C20.6893 9.37137 19.6103 9.00072 18.4995 8.99998H17.2395C16.9368 7.82923 16.3726 6.74232 15.5894 5.82098C14.8062 4.89964 13.8243 4.16783 12.7176 3.68059C11.6108 3.19335 10.408 2.96334 9.19959 3.00787C7.99116 3.05239 6.80854 3.37028 5.74065 3.93765C4.67276 4.50501 3.74738 5.30709 3.03409 6.28357C2.3208 7.26004 1.83816 8.38552 1.62245 9.57538C1.40674 10.7652 1.46358 11.9885 1.78869 13.1532C2.11379 14.318 2.69871 15.3938 3.49947 16.3" stroke="#303132" stroke-width="2" stroke-linecap="round" stroke-linejoin="round"/>
<path d="M16.5 16L12.5 12L8.5 16" stroke="#303132" stroke-width="2" stroke-linecap="round" stroke-linejoin="round"/>
</g>
<defs>
<clipPath id="clip0_110_3204">
<rect width="24" height="24" fill="white" transform="translate(0.5)"/>
</clipPath>
</defs>
</svg>
